<?xml version="1.0" encoding="UTF-8" standalone="no"?>
<!DOCTYPE svg PUBLIC "-//W3C//DTD SVG 1.1//EN" "http://www.w3.org/Graphics/SVG/1.1/DTD/svg11.dtd">
<svg xmlns="http://www.w3.org/2000/svg" version="1.1" viewBox="0.00 0.00 676.00 369.00">
<path stroke="#0099eb" stroke-width="2.00" fill="none" stroke-linecap="butt" vector-effect="non-scaling-stroke" d="
  M 676.00 2.63
  Q 675.78 2.58 675.59 2.63
  A 0.47 0.46 81.7 0 0 675.26 3.08
  L 675.26 85.42
  Q 675.26 86.03 674.66 86.07
  C 628.51 89.71 583.95 104.58 541.00 120.98
  C 495.73 138.27 450.88 156.74 403.74 168.48
  Q 368.79 177.19 334.25 177.46
  Q 285.92 177.84 233.01 166.99
  C 200.74 160.37 168.88 152.09 136.49 146.05
  Q 95.22 138.36 53.25 137.59
  Q 25.43 137.08 0.00 140.51"
/>
<path fill="#0091e9" d="
  M 0.00 0.00
  L 676.00 0.00
  L 676.00 2.63
  Q 675.78 2.58 675.59 2.63
  A 0.47 0.46 81.7 0 0 675.26 3.08
  L 675.26 85.42
  Q 675.26 86.03 674.66 86.07
  C 628.51 89.71 583.95 104.58 541.00 120.98
  C 495.73 138.27 450.88 156.74 403.74 168.48
  Q 368.79 177.19 334.25 177.46
  Q 285.92 177.84 233.01 166.99
  C 200.74 160.37 168.88 152.09 136.49 146.05
  Q 95.22 138.36 53.25 137.59
  Q 25.43 137.08 0.00 140.51
  L 0.00 0.00
  Z"
/>
<path fill="#00a1ec" d="
  M 676.00 2.63
  L 676.00 203.77
  Q 674.80 204.48 670.30 206.52
  C 620.02 229.33 568.54 246.73 514.50 255.11
  Q 489.36 259.00 477.25 259.01
  C 459.98 259.02 441.90 259.82 425.04 258.04
  C 393.53 254.73 363.46 246.07 334.43 234.58
  C 308.15 224.19 282.35 212.95 255.46 204.16
  C 219.33 192.34 182.39 186.94 143.61 188.02
  C 127.02 188.49 109.41 189.43 92.38 191.14
  C 61.26 194.27 30.66 199.41 0.00 205.53
  L 0.00 140.51
  Q 25.43 137.08 53.25 137.59
  Q 95.22 138.36 136.49 146.05
  C 168.88 152.09 200.74 160.37 233.01 166.99
  Q 285.92 177.84 334.25 177.46
  Q 368.79 177.19 403.74 168.48
  C 450.88 156.74 495.73 138.27 541.00 120.98
  C 583.95 104.58 628.51 89.71 674.66 86.07
  Q 675.26 86.03 675.26 85.42
  L 675.26 3.08
  A 0.47 0.46 81.7 0 1 675.59 2.63
  Q 675.78 2.58 676.00 2.63
  Z"
/>
</svg>
