<?xml version="1.0" encoding="UTF-8" standalone="no"?>
<!DOCTYPE svg PUBLIC "-//W3C//DTD SVG 1.1//EN" "http://www.w3.org/Graphics/SVG/1.1/DTD/svg11.dtd">
<svg xmlns="http://www.w3.org/2000/svg" version="1.1" viewBox="0.00 0.00 172.00 160.00">
<g stroke-width="2.00" fill="none" stroke-linecap="butt">
<path stroke="#a7b8c7" vector-effect="non-scaling-stroke" d="
  M 60.98 26.00
  L 13.01 26.00
  A 2.74 2.73 -90.0 0 0 10.28 28.74
  Q 10.24 87.23 10.14 146.00
  C 10.14 148.77 12.87 148.85 15.00 148.85
  Q 87.11 148.87 159.60 148.87
  A 2.90 2.90 0.0 0 0 162.50 145.97
  L 162.50 29.25
  Q 162.50 25.99 159.25 25.99
  L 112.01 26.00
  Q 111.11 26.00 110.94 25.11
  C 106.32 -0.16 72.56 -3.63 63.08 20.27
  C 62.47 21.82 62.23 23.79 61.61 25.55
  Q 61.45 26.00 60.98 26.00"
/>
<path stroke="#a7b8c7" vector-effect="non-scaling-stroke" d="
  M 105.31 28.88
  A 18.96 18.96 0.0 0 0 86.35 9.92
  A 18.96 18.96 0.0 0 0 67.39 28.88
  A 18.96 18.96 0.0 0 0 86.35 47.84
  A 18.96 18.96 0.0 0 0 105.31 28.88"
/>
<path stroke="#a7b8c7" vector-effect="non-scaling-stroke" d="
  M 16.00 44.39
  A 0.34 0.34 0.0 0 0 16.58 44.63
  L 28.93 32.33
  A 0.34 0.34 0.0 0 0 28.69 31.75
  L 16.36 31.73
  A 0.34 0.34 0.0 0 0 16.02 32.07
  L 16.00 44.39"
/>
<path stroke="#a7b8c7" vector-effect="non-scaling-stroke" d="
  M 70.26 86.42
  L 70.24 48.23
  A 1.19 1.18 -68.8 0 0 69.86 47.36
  Q 64.75 42.76 62.61 36.24
  C 62.22 35.05 62.18 33.60 61.73 32.26
  Q 61.56 31.75 61.02 31.75
  L 38.79 31.75
  A 2.20 2.18 22.3 0 0 37.24 32.39
  L 16.78 52.84
  A 2.78 2.77 67.4 0 0 15.98 54.79
  Q 16.01 86.82 16.12 119.25
  Q 16.13 121.67 17.25 122.76
  Q 27.42 132.62 37.33 142.42
  A 2.03 2.02 -22.7 0 0 38.75 143.00
  L 134.26 143.00
  A 1.51 1.47 -66.9 0 0 135.31 142.56
  L 156.19 121.68
  Q 156.63 121.24 156.63 120.63
  L 156.63 54.22
  A 1.62 1.61 -67.3 0 0 156.17 53.09
  L 135.13 32.11
  Q 134.77 31.75 134.26 31.75
  L 111.51 31.73
  Q 111.01 31.73 110.93 32.23
  Q 109.59 41.26 102.89 47.35
  A 1.18 1.16 -21.2 0 0 102.50 48.22
  Q 102.49 66.61 102.54 85.00
  Q 102.55 87.89 100.12 88.74
  A 2.49 2.45 -37.6 0 1 97.93 88.47
  L 86.76 81.01
  Q 86.35 80.74 85.94 81.00
  C 83.15 82.76 75.21 89.11 72.26 88.71
  A 2.31 2.31 0.0 0 1 70.26 86.42"
/>
<path stroke="#a7b8c7" vector-effect="non-scaling-stroke" d="
  M 144.03 31.74
  A 0.32 0.32 0.0 0 0 143.80 32.29
  L 156.04 44.57
  A 0.32 0.32 0.0 0 0 156.59 44.34
  L 156.63 32.06
  A 0.32 0.32 0.0 0 0 156.31 31.74
  L 144.03 31.74"
/>
<path stroke="#a7b8c7" vector-effect="non-scaling-stroke" d="
  M 80.20 52.90
  C 79.15 52.64 77.94 51.85 76.68 51.75
  A 0.51 0.51 0.0 0 0 76.12 52.26
  L 76.12 80.03
  A 0.24 0.24 0.0 0 0 76.49 80.23
  L 84.31 74.99
  Q 86.33 73.63 88.35 74.98
  L 96.12 80.16
  A 0.33 0.33 0.0 0 0 96.63 79.89
  L 96.61 52.30
  Q 96.61 51.68 96.02 51.84
  C 90.66 53.29 86.46 54.44 80.20 52.90"
/>
<path stroke="#a7b8c7" vector-effect="non-scaling-stroke" d="
  M 28.79 143.01
  A 0.30 0.30 0.0 0 0 29.00 142.49
  L 16.51 130.04
  A 0.30 0.30 0.0 0 0 16.00 130.25
  L 16.02 142.73
  A 0.30 0.30 0.0 0 0 16.32 143.02
  L 28.79 143.01"
/>
<path stroke="#a7b8c7" vector-effect="non-scaling-stroke" d="
  M 156.60 130.46
  A 0.32 0.32 0.0 0 0 156.05 130.23
  L 143.82 142.46
  A 0.32 0.32 0.0 0 0 144.05 143.01
  L 156.29 143.02
  A 0.32 0.32 0.0 0 0 156.61 142.70
  L 156.60 130.46"
/>
<path stroke="#a7b8c7" vector-effect="non-scaling-stroke" d="
  M 98.02 28.87
  A 11.68 11.68 0.0 0 0 86.34 17.19
  A 11.68 11.68 0.0 0 0 74.66 28.87
  A 11.68 11.68 0.0 0 0 86.34 40.55
  A 11.68 11.68 0.0 0 0 98.02 28.87"
/>
<path stroke="#a7b8c7" vector-effect="non-scaling-stroke" d="
  M 92.10 28.87
  A 5.77 5.77 0.0 0 0 86.33 23.10
  A 5.77 5.77 0.0 0 0 80.56 28.87
  A 5.77 5.77 0.0 0 0 86.33 34.64
  A 5.77 5.77 0.0 0 0 92.10 28.87"
/>
<path stroke="#a7b8c7" vector-effect="non-scaling-stroke" d="
  M 49.7007 68.2605
  A 2.74 2.74 0.0 0 0 46.9750 65.5062
  L 40.7951 65.4739
  A 2.74 2.74 0.0 0 0 38.0408 68.1995
  L 38.0393 68.4795
  A 2.74 2.74 0.0 0 0 40.7650 71.2338
  L 46.9449 71.2661
  A 2.74 2.74 0.0 0 0 49.6992 68.5405
  L 49.7007 68.2605"
/>
<path stroke="#a7b8c7" vector-effect="non-scaling-stroke" d="
  M 134.6407 68.2605
  A 2.73 2.73 0.0 0 0 131.9250 65.5162
  L 125.7451 65.4839
  A 2.73 2.73 0.0 0 0 123.0009 68.1995
  L 122.9993 68.4995
  A 2.73 2.73 0.0 0 0 125.7150 71.2438
  L 131.8949 71.2761
  A 2.73 2.73 0.0 0 0 134.6391 68.5605
  L 134.6407 68.2605"
/>
<path stroke="#a7b8c7" vector-effect="non-scaling-stroke" d="
  M 96.5598 100.4722
  A 2.81 2.81 0.0 0 0 93.7449 97.6671
  L 78.9249 97.6929
  A 2.81 2.81 0.0 0 0 76.1199 100.5078
  L 76.1202 100.6878
  A 2.81 2.81 0.0 0 0 78.9351 103.4929
  L 93.7551 103.4671
  A 2.81 2.81 0.0 0 0 96.5601 100.6522
  L 96.5598 100.4722"
/>
<path stroke="#a7b8c7" vector-effect="non-scaling-stroke" d="
  M 128.74 115.10
  A 2.86 2.86 0.0 0 0 125.88 112.24
  L 46.78 112.24
  A 2.86 2.86 0.0 0 0 43.92 115.10
  L 43.92 115.28
  A 2.86 2.86 0.0 0 0 46.78 118.14
  L 125.88 118.14
  A 2.86 2.86 0.0 0 0 128.74 115.28
  L 128.74 115.10"
/>
<path stroke="#a7b8c7" vector-effect="non-scaling-stroke" d="
  M 124.38 129.75
  A 2.80 2.80 0.0 0 0 121.58 126.95
  L 51.12 126.95
  A 2.80 2.80 0.0 0 0 48.32 129.75
  L 48.32 129.97
  A 2.80 2.80 0.0 0 0 51.12 132.77
  L 121.58 132.77
  A 2.80 2.80 0.0 0 0 124.38 129.97
  L 124.38 129.75"
/>
</g>
<path fill="#4f718e" d="
  M 0.00 0.00
  L 172.00 0.00
  L 172.00 160.00
  L 0.00 160.00
  L 0.00 0.00
  Z
  M 60.98 26.00
  L 13.01 26.00
  A 2.74 2.73 -90.0 0 0 10.28 28.74
  Q 10.24 87.23 10.14 146.00
  C 10.14 148.77 12.87 148.85 15.00 148.85
  Q 87.11 148.87 159.60 148.87
  A 2.90 2.90 0.0 0 0 162.50 145.97
  L 162.50 29.25
  Q 162.50 25.99 159.25 25.99
  L 112.01 26.00
  Q 111.11 26.00 110.94 25.11
  C 106.32 -0.16 72.56 -3.63 63.08 20.27
  C 62.47 21.82 62.23 23.79 61.61 25.55
  Q 61.45 26.00 60.98 26.00
  Z"
/>
<path fill="#ffffff" d="
  M 61.61 25.55
  C 62.23 23.79 62.47 21.82 63.08 20.27
  C 72.56 -3.63 106.32 -0.16 110.94 25.11
  Q 111.11 26.00 112.01 26.00
  L 159.25 25.99
  Q 162.50 25.99 162.50 29.25
  L 162.50 145.97
  A 2.90 2.90 0.0 0 1 159.60 148.87
  Q 87.11 148.87 15.00 148.85
  C 12.87 148.85 10.14 148.77 10.14 146.00
  Q 10.24 87.23 10.28 28.74
  A 2.74 2.73 90.0 0 1 13.01 26.00
  L 60.98 26.00
  Q 61.45 26.00 61.61 25.55
  Z
  M 105.31 28.88
  A 18.96 18.96 0.0 0 0 86.35 9.92
  A 18.96 18.96 0.0 0 0 67.39 28.88
  A 18.96 18.96 0.0 0 0 86.35 47.84
  A 18.96 18.96 0.0 0 0 105.31 28.88
  Z
  M 16.00 44.39
  A 0.34 0.34 0.0 0 0 16.58 44.63
  L 28.93 32.33
  A 0.34 0.34 0.0 0 0 28.69 31.75
  L 16.36 31.73
  A 0.34 0.34 0.0 0 0 16.02 32.07
  L 16.00 44.39
  Z
  M 70.26 86.42
  L 70.24 48.23
  A 1.19 1.18 -68.8 0 0 69.86 47.36
  Q 64.75 42.76 62.61 36.24
  C 62.22 35.05 62.18 33.60 61.73 32.26
  Q 61.56 31.75 61.02 31.75
  L 38.79 31.75
  A 2.20 2.18 22.3 0 0 37.24 32.39
  L 16.78 52.84
  A 2.78 2.77 67.4 0 0 15.98 54.79
  Q 16.01 86.82 16.12 119.25
  Q 16.13 121.67 17.25 122.76
  Q 27.42 132.62 37.33 142.42
  A 2.03 2.02 -22.7 0 0 38.75 143.00
  L 134.26 143.00
  A 1.51 1.47 -66.9 0 0 135.31 142.56
  L 156.19 121.68
  Q 156.63 121.24 156.63 120.63
  L 156.63 54.22
  A 1.62 1.61 -67.3 0 0 156.17 53.09
  L 135.13 32.11
  Q 134.77 31.75 134.26 31.75
  L 111.51 31.73
  Q 111.01 31.73 110.93 32.23
  Q 109.59 41.26 102.89 47.35
  A 1.18 1.16 -21.2 0 0 102.50 48.22
  Q 102.49 66.61 102.54 85.00
  Q 102.55 87.89 100.12 88.74
  A 2.49 2.45 -37.6 0 1 97.93 88.47
  L 86.76 81.01
  Q 86.35 80.74 85.94 81.00
  C 83.15 82.76 75.21 89.11 72.26 88.71
  A 2.31 2.31 0.0 0 1 70.26 86.42
  Z
  M 144.03 31.74
  A 0.32 0.32 0.0 0 0 143.80 32.29
  L 156.04 44.57
  A 0.32 0.32 0.0 0 0 156.59 44.34
  L 156.63 32.06
  A 0.32 0.32 0.0 0 0 156.31 31.74
  L 144.03 31.74
  Z
  M 80.20 52.90
  C 79.15 52.64 77.94 51.85 76.68 51.75
  A 0.51 0.51 0.0 0 0 76.12 52.26
  L 76.12 80.03
  A 0.24 0.24 0.0 0 0 76.49 80.23
  L 84.31 74.99
  Q 86.33 73.63 88.35 74.98
  L 96.12 80.16
  A 0.33 0.33 0.0 0 0 96.63 79.89
  L 96.61 52.30
  Q 96.61 51.68 96.02 51.84
  C 90.66 53.29 86.46 54.44 80.20 52.90
  Z
  M 28.79 143.01
  A 0.30 0.30 0.0 0 0 29.00 142.49
  L 16.51 130.04
  A 0.30 0.30 0.0 0 0 16.00 130.25
  L 16.02 142.73
  A 0.30 0.30 0.0 0 0 16.32 143.02
  L 28.79 143.01
  Z
  M 156.60 130.46
  A 0.32 0.32 0.0 0 0 156.05 130.23
  L 143.82 142.46
  A 0.32 0.32 0.0 0 0 144.05 143.01
  L 156.29 143.02
  A 0.32 0.32 0.0 0 0 156.61 142.70
  L 156.60 130.46
  Z"
/>
<path fill="#4f718e" d="
  M 105.31 28.88
  A 18.96 18.96 0.0 0 1 86.35 47.84
  A 18.96 18.96 0.0 0 1 67.39 28.88
  A 18.96 18.96 0.0 0 1 86.35 9.92
  A 18.96 18.96 0.0 0 1 105.31 28.88
  Z
  M 98.02 28.87
  A 11.68 11.68 0.0 0 0 86.34 17.19
  A 11.68 11.68 0.0 0 0 74.66 28.87
  A 11.68 11.68 0.0 0 0 86.34 40.55
  A 11.68 11.68 0.0 0 0 98.02 28.87
  Z"
/>
<path fill="#ffffff" d="
  M 98.02 28.87
  A 11.68 11.68 0.0 0 1 86.34 40.55
  A 11.68 11.68 0.0 0 1 74.66 28.87
  A 11.68 11.68 0.0 0 1 86.34 17.19
  A 11.68 11.68 0.0 0 1 98.02 28.87
  Z
  M 92.10 28.87
  A 5.77 5.77 0.0 0 0 86.33 23.10
  A 5.77 5.77 0.0 0 0 80.56 28.87
  A 5.77 5.77 0.0 0 0 86.33 34.64
  A 5.77 5.77 0.0 0 0 92.10 28.87
  Z"
/>
<circle fill="#4f718e" cx="86.33" cy="28.87" r="5.77"/>
<path fill="#4f718e" d="
  M 16.00 44.39
  L 16.02 32.07
  A 0.34 0.34 0.0 0 1 16.36 31.73
  L 28.69 31.75
  A 0.34 0.34 0.0 0 1 28.93 32.33
  L 16.58 44.63
  A 0.34 0.34 0.0 0 1 16.00 44.39
  Z"
/>
<path fill="#4f718e" d="
  M 70.26 86.42
  A 2.31 2.31 0.0 0 0 72.26 88.71
  C 75.21 89.11 83.15 82.76 85.94 81.00
  Q 86.35 80.74 86.76 81.01
  L 97.93 88.47
  A 2.49 2.45 -37.6 0 0 100.12 88.74
  Q 102.55 87.89 102.54 85.00
  Q 102.49 66.61 102.50 48.22
  A 1.18 1.16 -21.2 0 1 102.89 47.35
  Q 109.59 41.26 110.93 32.23
  Q 111.01 31.73 111.51 31.73
  L 134.26 31.75
  Q 134.77 31.75 135.13 32.11
  L 156.17 53.09
  A 1.62 1.61 -67.3 0 1 156.63 54.22
  L 156.63 120.63
  Q 156.63 121.24 156.19 121.68
  L 135.31 142.56
  A 1.51 1.47 -66.9 0 1 134.26 143.00
  L 38.75 143.00
  A 2.03 2.02 -22.7 0 1 37.33 142.42
  Q 27.42 132.62 17.25 122.76
  Q 16.13 121.67 16.12 119.25
  Q 16.01 86.82 15.98 54.79
  A 2.78 2.77 67.4 0 1 16.78 52.84
  L 37.24 32.39
  A 2.20 2.18 22.3 0 1 38.79 31.75
  L 61.02 31.75
  Q 61.56 31.75 61.73 32.26
  C 62.18 33.60 62.22 35.05 62.61 36.24
  Q 64.75 42.76 69.86 47.36
  A 1.19 1.18 -68.8 0 1 70.24 48.23
  L 70.26 86.42
  Z
  M 49.7007 68.2605
  A 2.74 2.74 0.0 0 0 46.9750 65.5062
  L 40.7951 65.4739
  A 2.74 2.74 0.0 0 0 38.0408 68.1995
  L 38.0393 68.4795
  A 2.74 2.74 0.0 0 0 40.7650 71.2338
  L 46.9449 71.2661
  A 2.74 2.74 0.0 0 0 49.6992 68.5405
  L 49.7007 68.2605
  Z
  M 134.6407 68.2605
  A 2.73 2.73 0.0 0 0 131.9250 65.5162
  L 125.7451 65.4839
  A 2.73 2.73 0.0 0 0 123.0009 68.1995
  L 122.9993 68.4995
  A 2.73 2.73 0.0 0 0 125.7150 71.2438
  L 131.8949 71.2761
  A 2.73 2.73 0.0 0 0 134.6391 68.5605
  L 134.6407 68.2605
  Z
  M 96.5598 100.4722
  A 2.81 2.81 0.0 0 0 93.7449 97.6671
  L 78.9249 97.6929
  A 2.81 2.81 0.0 0 0 76.1199 100.5078
  L 76.1202 100.6878
  A 2.81 2.81 0.0 0 0 78.9351 103.4929
  L 93.7551 103.4671
  A 2.81 2.81 0.0 0 0 96.5601 100.6522
  L 96.5598 100.4722
  Z
  M 128.74 115.10
  A 2.86 2.86 0.0 0 0 125.88 112.24
  L 46.78 112.24
  A 2.86 2.86 0.0 0 0 43.92 115.10
  L 43.92 115.28
  A 2.86 2.86 0.0 0 0 46.78 118.14
  L 125.88 118.14
  A 2.86 2.86 0.0 0 0 128.74 115.28
  L 128.74 115.10
  Z
  M 124.38 129.75
  A 2.80 2.80 0.0 0 0 121.58 126.95
  L 51.12 126.95
  A 2.80 2.80 0.0 0 0 48.32 129.75
  L 48.32 129.97
  A 2.80 2.80 0.0 0 0 51.12 132.77
  L 121.58 132.77
  A 2.80 2.80 0.0 0 0 124.38 129.97
  L 124.38 129.75
  Z"
/>
<path fill="#4f718e" d="
  M 144.03 31.74
  L 156.31 31.74
  A 0.32 0.32 0.0 0 1 156.63 32.06
  L 156.59 44.34
  A 0.32 0.32 0.0 0 1 156.04 44.57
  L 143.80 32.29
  A 0.32 0.32 0.0 0 1 144.03 31.74
  Z"
/>
<path fill="#4f718e" d="
  M 80.20 52.90
  C 86.46 54.44 90.66 53.29 96.02 51.84
  Q 96.61 51.68 96.61 52.30
  L 96.63 79.89
  A 0.33 0.33 0.0 0 1 96.12 80.16
  L 88.35 74.98
  Q 86.33 73.63 84.31 74.99
  L 76.49 80.23
  A 0.24 0.24 0.0 0 1 76.12 80.03
  L 76.12 52.26
  A 0.51 0.51 0.0 0 1 76.68 51.75
  C 77.94 51.85 79.15 52.64 80.20 52.90
  Z"
/>
<rect fill="#ffffff" x="-5.83" y="-2.88" transform="translate(43.87,68.37) rotate(0.3)" width="11.66" height="5.76" rx="2.74"/>
<rect fill="#ffffff" x="-5.82" y="-2.88" transform="translate(128.82,68.38) rotate(0.3)" width="11.64" height="5.76" rx="2.73"/>
<rect fill="#ffffff" x="-10.22" y="-2.90" transform="translate(86.34,100.58) rotate(-0.1)" width="20.44" height="5.80" rx="2.81"/>
<rect fill="#ffffff" x="43.92" y="112.24" width="84.82" height="5.90" rx="2.86"/>
<rect fill="#ffffff" x="48.32" y="126.95" width="76.06" height="5.82" rx="2.80"/>
<path fill="#4f718e" d="
  M 28.79 143.01
  L 16.32 143.02
  A 0.30 0.30 0.0 0 1 16.02 142.73
  L 16.00 130.25
  A 0.30 0.30 0.0 0 1 16.51 130.04
  L 29.00 142.49
  A 0.30 0.30 0.0 0 1 28.79 143.01
  Z"
/>
<path fill="#4f718e" d="
  M 156.60 130.46
  L 156.61 142.70
  A 0.32 0.32 0.0 0 1 156.29 143.02
  L 144.05 143.01
  A 0.32 0.32 0.0 0 1 143.82 142.46
  L 156.05 130.23
  A 0.32 0.32 0.0 0 1 156.60 130.46
  Z"
/>
</svg>
