<?xml version="1.0" encoding="UTF-8" standalone="no"?>
<!DOCTYPE svg PUBLIC "-//W3C//DTD SVG 1.1//EN" "http://www.w3.org/Graphics/SVG/1.1/DTD/svg11.dtd">
<svg xmlns="http://www.w3.org/2000/svg" version="1.1" viewBox="0.00 0.00 303.00 307.00">
<g stroke-width="2.00" fill="none" stroke-linecap="butt">
<path stroke="#024a7f" vector-effect="non-scaling-stroke" d="
  M 53.99 249.46
  L 53.99 142.49
  Q 53.99 140.49 51.99 140.49
  L 48.74 140.51
  Q 46.50 140.52 46.50 142.76
  L 46.51 253.99
  A 1.55 1.54 1.2 0 0 48.00 255.53
  C 65.40 256.17 82.93 255.81 100.36 256.12
  Q 113.55 256.35 133.50 256.02
  Q 135.09 255.99 141.19 256.69
  Q 141.37 256.71 141.40 256.53
  L 141.44 256.26
  A 0.46 0.45 9.3 0 0 141.07 255.75
  Q 129.31 253.53 117.50 251.46
  C 112.38 250.56 106.81 250.32 101.58 250.30
  Q 78.23 250.20 54.85 250.31
  Q 53.99 250.32 53.99 249.46"
/>
<path stroke="#024a7f" vector-effect="non-scaling-stroke" d="
  M 175.27 256.13
  Q 216.60 256.21 257.66 255.59
  A 1.85 1.85 0.0 0 0 259.48 253.74
  L 259.45 142.01
  A 1.54 1.54 0.0 0 0 257.83 140.47
  L 253.64 140.68
  Q 252.97 140.72 252.81 141.36
  C 252.38 143.11 252.00 144.81 251.99 146.65
  Q 251.94 197.68 251.95 248.98
  A 1.32 1.32 0.0 0 1 250.62 250.30
  C 225.71 250.16 199.76 248.78 175.76 253.61
  Q 167.70 255.23 164.74 255.62
  A 0.48 0.48 0.0 0 0 164.33 256.21
  L 164.42 256.58
  A 0.29 0.28 -9.6 0 0 164.72 256.79
  C 168.25 256.52 171.75 256.12 175.27 256.13"
/>
</g>
<path fill="#f8f9c6" d="
  M 247.92 31.59
  L 251.86 35.81
  Q 252.24 36.22 252.79 36.27
  Q 257.05 36.68 261.24 37.33
  Q 261.98 37.45 262.44 38.04
  A 0.54 0.54 0.0 0 1 262.05 38.91
  C 259.45 39.10 256.75 38.60 254.41 39.71
  Q 250.77 41.44 247.88 44.29
  Q 247.54 44.63 247.51 45.10
  C 247.37 47.12 247.35 48.99 246.65 50.91
  Q 246.02 52.64 245.38 54.37
  A 0.04 0.04 0.0 0 0 245.43 54.42
  L 245.67 54.39
  Q 245.92 54.35 245.89 54.10
  Q 245.00 48.01 242.09 43.43
  C 239.68 39.65 237.33 39.40 233.10 39.09
  Q 229.06 38.79 232.83 37.30
  Q 234.56 36.63 238.02 36.56
  Q 238.46 36.55 238.80 36.27
  Q 243.92 32.08 245.19 25.70
  Q 246.07 21.32 246.78 25.73
  L 247.64 31.03
  A 1.07 1.02 19.7 0 0 247.92 31.59
  Z
  M 249.76 38.56
  A 0.64 0.64 0.0 0 0 249.79 37.62
  L 246.14 34.05
  A 0.64 0.64 0.0 0 0 245.32 33.99
  L 241.48 36.76
  A 0.64 0.64 0.0 0 0 241.38 37.71
  L 245.12 41.77
  A 0.64 0.64 0.0 0 0 246.01 41.82
  L 249.76 38.56
  Z"
/>
<path fill="#f8f9c6" d="
  M 257.58 57.71
  C 260.33 55.09 260.16 52.38 261.65 49.50
  A 0.39 0.39 0.0 0 1 262.35 49.51
  C 262.96 50.81 263.00 52.37 263.50 53.46
  Q 265.40 57.61 269.82 58.82
  A 1.19 1.18 -58.4 0 1 270.30 60.84
  C 267.34 63.55 263.46 63.43 263.17 68.49
  Q 263.06 70.55 261.77 70.23
  A 0.73 0.71 85.3 0 1 261.30 69.82
  C 260.56 68.01 259.92 65.02 258.81 63.77
  C 257.90 62.75 255.90 61.98 255.04 61.48
  Q 251.23 59.28 255.51 58.27
  Q 255.69 58.23 256.75 58.10
  Q 257.23 58.05 257.58 57.71
  Z
  M 261.3899 62.7898
  A 2.85 2.11 109.9 0 0 264.3440 60.8282
  A 2.85 2.11 109.9 0 0 263.3301 57.4302
  A 2.85 2.11 109.9 0 0 260.3760 59.3918
  A 2.85 2.11 109.9 0 0 261.3899 62.7898
  Z"
/>
<path fill="#000000" d="
  M 241.72 129.78
  L 250.98 129.73
  A 1.00 0.99 -0.0 0 1 251.99 130.73
  L 251.96 136.88
  A 1.65 1.65 0.0 0 0 253.63 138.54
  L 260.68 138.46
  A 0.48 0.48 0.0 0 1 261.16 138.94
  L 261.17 256.53
  Q 261.17 257.73 259.97 257.74
  L 154.50 259.03
  A 0.83 0.83 0.0 0 0 153.68 259.91
  Q 154.20 269.02 156.50 277.23
  Q 156.84 278.41 156.45 279.13
  A 1.14 1.13 43.7 0 1 154.48 279.17
  Q 149.03 270.07 147.85 259.50
  A 0.61 0.60 -2.7 0 0 147.26 258.97
  L 45.95 257.76
  A 1.32 1.31 0.4 0 1 44.65 256.45
  L 44.66 139.34
  A 0.87 0.87 0.0 0 1 45.53 138.47
  L 53.07 138.44
  A 0.99 0.99 0.0 0 0 54.05 137.43
  L 53.96 130.75
  A 1.03 1.03 0.0 0 1 55.00 129.70
  L 62.61 129.76
  Q 63.50 129.77 63.47 128.88
  L 63.18 122.04
  A 0.99 0.98 88.9 0 1 64.16 121.01
  Q 84.53 120.97 104.99 121.01
  Q 119.04 121.03 124.91 122.22
  Q 136.78 124.65 146.88 131.73
  A 1.28 1.28 0.0 0 0 148.67 131.41
  Q 154.13 123.58 157.56 114.69
  Q 158.38 112.54 159.81 114.34
  Q 160.51 115.23 160.67 117.34
  Q 160.71 117.90 161.26 117.90
  Q 161.96 117.90 162.27 116.99
  C 163.12 114.55 163.83 111.99 164.98 109.73
  C 171.66 96.64 180.35 86.74 191.22 76.87
  Q 206.04 63.43 222.52 52.01
  Q 223.52 51.32 224.48 51.49
  A 0.64 0.64 0.0 0 1 224.95 52.41
  C 219.40 63.22 223.34 76.54 222.94 88.75
  C 222.66 97.32 220.89 103.18 216.41 110.22
  Q 215.82 111.15 216.77 111.93
  Q 217.14 112.24 217.56 111.98
  Q 219.13 111.03 220.09 111.12
  Q 225.43 111.65 220.94 114.59
  Q 218.36 116.28 215.26 119.28
  Q 213.45 121.04 215.98 121.03
  L 239.32 120.98
  A 0.90 0.90 0.0 0 1 240.23 121.89
  L 240.17 128.22
  Q 240.15 129.79 241.72 129.78
  Z
  M 139.08 236.55
  L 136.89 234.72
  Q 136.50 234.39 136.06 234.66
  Q 135.85 234.79 135.72 235.02
  Q 135.53 235.40 135.73 236.00
  Q 138.44 243.89 145.63 248.96
  A 0.52 0.51 -74.4 0 0 146.44 248.50
  C 145.87 239.42 146.39 229.67 147.67 220.60
  C 150.33 201.80 154.19 185.59 160.27 169.73
  C 174.41 132.86 194.09 97.09 215.33 63.33
  Q 216.50 61.46 218.71 59.13
  A 0.44 0.44 0.0 0 0 218.54 58.42
  L 218.18 58.29
  Q 217.52 58.05 216.97 58.47
  C 201.69 70.23 190.05 79.89 179.17 92.17
  C 171.10 101.28 155.93 123.77 166.62 135.82
  A 0.76 0.75 -37.2 0 1 166.46 136.96
  L 166.13 137.18
  Q 165.40 137.64 164.78 137.03
  Q 158.09 130.35 159.15 120.90
  Q 159.19 120.52 158.48 120.07
  Q 158.36 120.00 158.22 119.95
  A 0.44 0.43 -68.9 0 0 157.68 120.19
  C 153.47 129.99 146.11 139.67 139.61 148.11
  C 131.02 159.28 133.05 173.28 145.62 180.31
  A 0.52 0.51 -56.4 0 1 145.77 181.08
  L 145.53 181.38
  Q 144.95 182.12 144.07 181.77
  Q 138.01 179.34 135.34 175.65
  Q 133.23 172.73 131.53 171.29
  Q 131.11 170.93 130.76 171.36
  Q 130.60 171.54 130.53 171.80
  Q 130.43 172.16 130.70 172.70
  C 132.85 177.13 132.29 184.84 130.90 189.46
  C 128.36 197.85 122.69 209.83 127.29 218.45
  Q 131.91 227.11 139.67 234.34
  Q 140.53 235.14 139.75 236.44
  Q 139.48 236.89 139.08 236.55
  Z
  M 164.83 207.21
  Q 164.65 206.37 165.36 205.88
  C 177.87 197.25 189.26 186.43 192.87 170.78
  C 195.58 159.03 197.10 145.89 201.56 135.03
  C 203.98 129.14 210.53 118.62 216.75 115.35
  Q 217.29 115.07 216.76 114.76
  C 216.16 114.42 215.62 114.26 214.89 114.46
  Q 208.43 116.18 201.96 119.69
  A 0.68 0.67 -33.5 0 1 201.12 119.52
  L 200.95 119.30
  Q 200.17 118.33 201.25 117.72
  C 205.64 115.24 211.18 114.12 213.95 109.97
  Q 220.92 99.53 220.53 87.75
  Q 220.12 75.60 220.01 63.39
  Q 220.00 62.70 219.36 62.97
  Q 218.27 63.42 218.17 64.66
  Q 218.13 65.12 217.91 65.53
  C 201.67 94.72 186.44 124.80 173.67 155.69
  Q 159.57 189.82 154.68 225.81
  C 153.81 232.19 153.61 239.65 153.00 246.68
  A 0.68 0.68 0.0 0 0 154.06 247.30
  Q 162.24 241.76 168.09 233.52
  C 172.18 227.75 172.55 220.78 173.43 214.25
  Q 174.16 208.75 176.72 205.58
  Q 179.02 202.72 175.48 203.69
  C 171.75 204.71 169.26 206.26 165.96 208.08
  Q 165.10 208.55 164.91 207.59
  L 164.83 207.21
  Z
  M 181.62 200.56
  A 1.05 1.05 0.0 0 1 182.18 202.44
  C 176.10 207.06 175.25 215.31 174.57 222.99
  C 173.60 234.05 162.75 244.26 153.54 250.61
  Q 152.68 251.21 153.14 252.15
  L 153.34 252.55
  Q 153.71 253.31 154.37 252.79
  C 164.84 244.70 175.73 239.64 189.25 239.44
  Q 213.33 239.08 237.10 239.16
  A 0.90 0.90 0.0 0 0 238.00 238.26
  L 238.01 123.74
  A 0.78 0.77 90.0 0 0 237.24 122.96
  L 212.68 123.02
  A 2.04 2.03 19.7 0 0 211.11 123.76
  C 199.31 138.00 200.08 153.31 194.61 172.60
  C 191.54 183.45 186.48 191.92 177.62 198.98
  Q 176.86 199.58 176.80 200.55
  L 176.77 201.00
  Q 176.73 201.78 177.42 201.42
  Q 179.43 200.40 181.62 200.56
  Z
  M 129.82 231.19
  L 131.97 231.07
  A 0.78 0.78 0.0 0 0 132.49 229.76
  Q 129.71 226.81 127.51 223.71
  C 119.49 212.41 124.47 200.98 128.56 189.47
  C 131.04 182.48 129.53 174.86 126.96 168.26
  A 0.98 0.97 -4.2 0 1 128.09 166.96
  Q 130.37 167.48 131.54 169.48
  Q 131.76 169.84 132.13 169.65
  Q 132.86 169.28 132.69 168.47
  Q 130.42 157.64 136.37 149.08
  Q 141.39 141.88 146.44 134.81
  A 0.44 0.44 0.0 0 0 146.35 134.20
  C 135.39 126.09 122.91 123.02 109.50 123.00
  Q 87.98 122.96 66.39 123.00
  A 1.10 1.09 -5.1 0 0 65.31 124.28
  Q 65.57 125.76 65.57 127.50
  Q 65.58 181.25 65.53 239.01
  A 0.19 0.19 0.0 0 0 65.72 239.20
  Q 88.82 239.08 112.00 239.09
  Q 124.96 239.10 135.48 244.45
  Q 138.33 245.91 136.62 243.20
  C 134.36 239.64 134.32 235.87 129.89 233.39
  Q 128.80 232.78 129.22 231.64
  Q 129.37 231.21 129.82 231.19
  Z
  M 63.27 240.83
  L 63.29 132.79
  Q 63.29 131.80 62.29 131.78
  L 57.21 131.70
  A 1.09 1.09 0.0 0 0 56.10 132.79
  L 56.08 246.98
  A 1.23 1.23 0.0 0 0 57.31 248.21
  Q 78.56 248.22 99.58 248.24
  C 114.24 248.26 125.14 249.89 138.86 252.95
  Q 143.66 254.03 145.87 255.11
  A 0.47 0.47 0.0 0 0 146.55 254.74
  L 146.57 254.48
  A 1.38 1.36 20.5 0 0 145.97 253.18
  C 135.88 246.42 124.92 241.54 112.50 241.49
  Q 88.24 241.40 63.94 241.50
  A 0.67 0.66 89.6 0 1 63.27 240.83
  Z
  M 240.13 240.84
  Q 239.75 241.51 239.35 241.51
  Q 219.03 241.36 198.71 241.45
  C 182.83 241.52 172.65 243.04 160.57 251.36
  Q 157.90 253.20 155.19 254.94
  Q 154.92 255.11 155.02 255.41
  Q 155.07 255.56 155.10 255.73
  Q 155.16 256.11 155.53 256.00
  C 172.75 250.76 189.33 248.21 207.75 248.22
  Q 228.08 248.22 248.34 248.26
  A 1.50 1.49 90.0 0 0 249.83 246.76
  L 249.84 133.05
  A 1.30 1.29 -90.0 0 0 248.55 131.75
  L 241.47 131.77
  Q 240.22 131.77 240.22 133.03
  L 240.22 240.50
  A 0.71 0.68 -31.3 0 1 240.13 240.84
  Z
  M 53.99 249.46
  L 53.99 142.49
  Q 53.99 140.49 51.99 140.49
  L 48.74 140.51
  Q 46.50 140.52 46.50 142.76
  L 46.51 253.99
  A 1.55 1.54 1.2 0 0 48.00 255.53
  C 65.40 256.17 82.93 255.81 100.36 256.12
  Q 113.55 256.35 133.50 256.02
  Q 135.09 255.99 141.19 256.69
  Q 141.37 256.71 141.40 256.53
  L 141.44 256.26
  A 0.46 0.45 9.3 0 0 141.07 255.75
  Q 129.31 253.53 117.50 251.46
  C 112.38 250.56 106.81 250.32 101.58 250.30
  Q 78.23 250.20 54.85 250.31
  Q 53.99 250.32 53.99 249.46
  Z
  M 175.27 256.13
  Q 216.60 256.21 257.66 255.59
  A 1.85 1.85 0.0 0 0 259.48 253.74
  L 259.45 142.01
  A 1.54 1.54 0.0 0 0 257.83 140.47
  L 253.64 140.68
  Q 252.97 140.72 252.81 141.36
  C 252.38 143.11 252.00 144.81 251.99 146.65
  Q 251.94 197.68 251.95 248.98
  A 1.32 1.32 0.0 0 1 250.62 250.30
  C 225.71 250.16 199.76 248.78 175.76 253.61
  Q 167.70 255.23 164.74 255.62
  A 0.48 0.48 0.0 0 0 164.33 256.21
  L 164.42 256.58
  A 0.29 0.28 -9.6 0 0 164.72 256.79
  C 168.25 256.52 171.75 256.12 175.27 256.13
  Z"
/>
<path fill="#0394fd" d="
  M 53.99 249.46
  Q 53.99 250.32 54.85 250.31
  Q 78.23 250.20 101.58 250.30
  C 106.81 250.32 112.38 250.56 117.50 251.46
  Q 129.31 253.53 141.07 255.75
  A 0.46 0.45 9.3 0 1 141.44 256.26
  L 141.40 256.53
  Q 141.37 256.71 141.19 256.69
  Q 135.09 255.99 133.50 256.02
  Q 113.55 256.35 100.36 256.12
  C 82.93 255.81 65.40 256.17 48.00 255.53
  A 1.55 1.54 1.2 0 1 46.51 253.99
  L 46.50 142.76
  Q 46.50 140.52 48.74 140.51
  L 51.99 140.49
  Q 53.99 140.49 53.99 142.49
  L 53.99 249.46
  Z"
/>
<path fill="#0394fd" d="
  M 175.27 256.13
  C 171.75 256.12 168.25 256.52 164.72 256.79
  A 0.29 0.28 -9.6 0 1 164.42 256.58
  L 164.33 256.21
  A 0.48 0.48 0.0 0 1 164.74 255.62
  Q 167.70 255.23 175.76 253.61
  C 199.76 248.78 225.71 250.16 250.62 250.30
  A 1.32 1.32 0.0 0 0 251.95 248.98
  Q 251.94 197.68 251.99 146.65
  C 252.00 144.81 252.38 143.11 252.81 141.36
  Q 252.97 140.72 253.64 140.68
  L 257.83 140.47
  A 1.54 1.54 0.0 0 1 259.45 142.01
  L 259.48 253.74
  A 1.85 1.85 0.0 0 1 257.66 255.59
  Q 216.60 256.21 175.27 256.13
  Z"
/>
</svg>
